<?xml version="1.0" encoding="UTF-8"?>
<svg id="Layer_1" data-name="Layer 1" xmlns="http://www.w3.org/2000/svg" viewBox="0 0 444.43 71.23">
  <defs>
    <style>
      .cls-1 {
        fill: #0b0d0e;
      }
    </style>
  </defs>
  <path class="cls-1" d="M311.73,40.67c-1.14-.41-1.9-1.42-2.89-2.08-4.39-2.98-9.41-3.83-14.61-3.9-.52-.06-1.06,.13-1.56-.16-1.48-.03-2.96-.06-4.44-.08-.58-.08-1.19,.15-1.75-.16-1.65-.03-3.31-.06-4.96-.08-.65-.08-1.33,.15-1.97-.16-1.9-.03-3.81-.06-5.71-.09-.74-.08-1.5,.17-2.23-.15-2.37-.03-4.75-.06-7.12-.09,0,0,0,0,0,0-.97-.08-1.96,.17-2.92-.15-4.25,.53-8.2-.61-12.13-2.08-5.08-1.9-10.22-3.65-15.32-5.48-2.38-.74-4.65-1.98-7.07-2.52-3.11,0-6.22,0-9.42,.23,6.26,3.14,12.52,6.29,18.78,9.43,0,.06-.02,.12-.03,.19h-8.76c-1.93,.34-3.87,.06-5.8,.15-9.04,.1-18.09,.18-27.12-.01-.74-.06-1.5,.18-2.23-.13-2.22,.23-4.33-.35-6.44-.88-4.43-1.11-8.79-2.44-12.82-4.65-2.51-1.38-4.69-3.1-6.58-5.31-2.93-3.46-6.13-6.69-8.99-10.23-2.83-3.43-6.13-6.51-8.8-10.08-1.3-1.74-2.96-2.24-4.98-2.02-.6-.08-1.22,.12-1.8-.17-2.17,.15-2.72-.25-1.99,2.19,2.83,10.77,5.66,21.54,8.51,32.31,.15,.58,.05,.83-.58,.78-5.31-.27-10.58-.99-15.88-1.26-.31,.12-.69-.09-.95,.21,4.9,1.01,9.78,2.09,14.67,3.11,.4,.08,.57,.29,.62,.6,.38,2.66,2.43,3.68,4.59,4.18,6.05,1.41,11.83,3.67,17.83,5.22,7.83,2.11,15.81,3.75,23.93,4.26,.44,.04,.9-.12,1.32,.15,9.25,.01,18.05,.03,27.38,.03-10.71,5.96-21.18,11.79-31.96,17.79,4.21,.61,7.84,1.02,11.94,1.6,2.16,.31,4.02-.68,5.95-1.32,19.07-6.09,37.94-12.97,57.1-18.68,5.28-.28,10.62-.05,15.91-.14,0,0,0,0,0,0h0c.24-.21,.53-.14,.8-.14,4.72,0,9.45,0,14.17,0,.27,0,.56-.05,.8,.15,2.05,0,4.09,0,6.14,0,.39-.27,.83-.12,1.24-.17,3.62-.31,7.01-1.41,10.24-3.02,.56-.28,1.08-.71,1.5-1.17,2.3-2.76-1.24-5.15-3.59-6.02Zm-132.01,1.25c-.92,0-1.24-.33-1.07-1.2-.17-.88,.17-1.17,1.08-1.21,1.05-.04,1.13,.43,1.15,1.27,.03,.92-.3,1.14-1.17,1.13Zm5.55,0c-.81-.02-1.25-.15-1.21-1.11,.03-.84,.11-1.33,1.16-1.29,.88,.04,1.29,.25,1.09,1.17,.15,.83-.07,1.26-1.03,1.23Zm5.42,0c-.91,0-1.29-.22-1.24-1.2,.04-.8,.15-1.23,1.11-1.21,.89,.02,1.4,.19,1.19,1.19,.15,.85-.13,1.22-1.06,1.22Zm5.34,0c-.89,0-1.29-.26-1.09-1.17-.15-.85,.11-1.21,1.06-1.24,1-.03,1.18,.36,1.19,1.25,.01,.9-.28,1.16-1.16,1.16Zm5.57,0c-.75-.05-1.41-.02-1.2-1.01-.02-.72-.19-1.43,.94-1.38,.81,.04,1.38,.05,1.31,1.13-.05,.74-.02,1.32-1.05,1.26Zm5.31,0c-.79-.04-1.36-.13-1.16-1.11-.16-.89,.13-1.31,1.13-1.28,.83,.02,1.23,.2,1.22,1.12,0,.88-.2,1.32-1.19,1.27Zm5.4,0c-.91,0-1.24-.31-1.05-1.18-.16-.84,.08-1.21,1.03-1.22,1.01-.02,1.15,.39,1.17,1.26,.02,.9-.27,1.15-1.15,1.15Zm5.51,0c-.9,0-1.3-.22-1.26-1.2,.04-.8,.15-1.35,1.18-1.14,.91-.22,1.21,.2,1.22,1.14,0,.85-.22,1.2-1.13,1.2Zm5.35,0c-.85-.03-1.33-.2-1.1-1.15-.2-.95,.19-1.24,1.14-1.26,.99-.02,1.06,.43,1.08,1.22,.02,.86-.19,1.21-1.12,1.18Zm5.43,0c-.9,0-1.26-.3-1.09-1.18-.14-.82,.07-1.23,1.04-1.23,.97,0,1.21,.33,1.21,1.25,0,.9-.29,1.15-1.17,1.16Zm5.55,0c-.8-.03-1.4-.06-1.34-1.12,.04-.76,.07-1.31,1.07-1.27,.79,.03,1.48,.01,1.28,1.14,.11,.74,0,1.28-1.01,1.25Zm5.21,0c-1,.03-1.14-.46-1-1.25-.21-.92,.24-1.1,1.1-1.15,1.1-.06,1.05,.54,1.1,1.31,.07,.98-.4,1.06-1.19,1.09Zm5.46,0c-.91,.03-1.15-.33-1.16-1.19-.02-.96,.36-1.21,1.27-1.21,.91,0,1.26,.31,1.07,1.25,.28,.99-.31,1.12-1.18,1.15Zm5.39,0c-.94,.01-1.21-.37-1.05-1.21-.18-.9,.2-1.15,1.09-1.19,1.06-.05,1.11,.45,1.14,1.28,.03,.94-.34,1.12-1.18,1.13Zm5.49,0c-.9,0-1.26-.3-1.08-1.22-.17-.81,.09-1.17,1.05-1.18,.99,0,1.18,.36,1.19,1.26,0,.91-.3,1.14-1.16,1.15Zm5.4,0c-.9,0-1.13-.32-1.15-1.18-.01-.92,.24-1.26,1.2-1.23,.88,.02,1.26,.28,1.1,1.18,.18,.94-.21,1.24-1.16,1.23Zm5.49,0c-.83-.02-1.21-.18-1.19-1.12,.02-.86,.14-1.3,1.17-1.28,.92,.02,1.24,.33,1.08,1.2,.16,.85-.13,1.22-1.06,1.2Zm5.53,0c-.75-.04-1.33-.02-1.24-1.05,.06-.73-.09-1.43,1.06-1.34,.8,.06,1.36,.13,1.16,1.11,.1,.76,.05,1.34-.98,1.29Zm5.32,0c-.89-.01-1.41-.2-1.17-1.26-.23-.88,.18-1.13,1.07-1.14,.91-.01,1.28,.25,1.27,1.21-.01,.86-.26,1.2-1.17,1.19Zm5.34,0c-.97,.03-1.18-.4-1.02-1.22-.19-.88,.16-1.15,1.06-1.18,1.06-.04,1.1,.46,1.14,1.28,.04,.94-.35,1.1-1.18,1.12Zm5.53,0c-.91,0-1.28-.25-1.25-1.21,.03-.82,.17-1.34,1.18-1.13,.92-.22,1.21,.22,1.21,1.15,0,.86-.25,1.19-1.15,1.19Zm5.4,0c-.82-.02-1.23-.17-1.2-1.12,.02-.87,.15-1.3,1.17-1.29,.91,.02,1.25,.3,1.08,1.18,.15,.83-.08,1.25-1.05,1.22Zm10.17-2.86c1.26,0,2.5,.04,3.72-.01,1.23-.06,1.94,.65,2.64,1.52-2.99,1.41-5.11,.33-6.36-1.5Z"/>
  <circle class="cls-1" cx="438.3" cy="39.52" r="6.13"/>
  <circle class="cls-1" cx="6.13" cy="40.12" r="6.13"/>
  <circle class="cls-1" cx="22.98" cy="39.52" r="2.72"/>
  <circle class="cls-1" cx="36.43" cy="39.52" r="2.72"/>
  <circle class="cls-1" cx="49.87" cy="39.52" r="2.72"/>
  <circle class="cls-1" cx="63.32" cy="39.52" r="2.72"/>
  <circle class="cls-1" cx="78.44" cy="39.52" r="2.72"/>
  <circle class="cls-1" cx="91.88" cy="39.52" r="2.72"/>
  <circle class="cls-1" cx="105.33" cy="39.52" r="2.72"/>
  <circle class="cls-1" cx="118.78" cy="39.52" r="2.72"/>
  <circle class="cls-1" cx="323.78" cy="40.12" r="2.72"/>
  <circle class="cls-1" cx="337.22" cy="40.12" r="2.72"/>
  <circle class="cls-1" cx="350.67" cy="40.12" r="2.72"/>
  <circle class="cls-1" cx="364.12" cy="40.12" r="2.72"/>
  <circle class="cls-1" cx="379.23" cy="40.12" r="2.72"/>
  <circle class="cls-1" cx="392.68" cy="40.12" r="2.72"/>
  <circle class="cls-1" cx="406.13" cy="40.12" r="2.72"/>
  <circle class="cls-1" cx="419.57" cy="40.12" r="2.72"/>
</svg>