<?xml version="1.0" encoding="utf-8"?>
<!-- Generator: Adobe Illustrator 19.0.0, SVG Export Plug-In . SVG Version: 6.00 Build 0)  -->
<svg version="1.1" id="Layer_1" xmlns="http://www.w3.org/2000/svg" xmlns:xlink="http://www.w3.org/1999/xlink" x="0px" y="0px"
	 viewBox="0 0 500 500" style="enable-background:new 0 0 500 500;" xml:space="preserve">
<style type="text/css">
	.st0{fill:#C41230;}
	.st1{fill:#FFFFFF;}
	.st2{clip-path:url(#XMLID_17_);fill:url(#XMLID_18_);}
</style>
<g id="XMLID_1_">
	<rect id="XMLID_61_" x="67.5" y="183.8" class="st0" width="365" height="132.4"/>
	<path id="XMLID_86_" class="st1" d="M411.9,299c0-0.4-0.1-0.8-0.4-1c-0.3-0.2-0.7-0.4-1.1-0.4c-0.4,0-0.7,0.1-1,0.2
		c-0.3,0.2-0.5,0.4-0.6,0.7c-0.1,0.1-0.1,0.3-0.1,0.5H411.9 M413.5,300h-5c0,0.6,0.1,1.1,0.3,1.7c0.2,0.5,0.6,1,1,1.3
		c0.5,0.3,1.1,0.5,1.8,0.5c0.6,0,1.1-0.1,1.6-0.3v1.2c-0.7,0.2-1.4,0.2-2.1,0.3c-1,0-1.8-0.2-2.4-0.6c-0.6-0.4-1.1-0.9-1.4-1.6
		c-0.3-0.7-0.4-1.4-0.4-2.3c0-0.7,0.1-1.3,0.4-1.9c0.2-0.6,0.6-1,1.1-1.3c0.5-0.3,1.2-0.5,2-0.5c1,0,1.8,0.3,2.3,0.9
		c0.5,0.6,0.8,1.3,0.8,2.2L413.5,300L413.5,300z M283.2,294.4c-0.6-0.1-1.1-0.2-1.7-0.2c-0.6,0-1,0.2-1.3,0.5
		c-0.3,0.3-0.4,0.7-0.4,1.2v0.8h2.6v1.1h-2.6v6.6h-1.6v-6.6h-1.5v-1.1h1.5v-0.9c0-1,0.3-1.7,0.9-2.1c0.6-0.4,1.4-0.7,2.4-0.7
		c0.6,0,1.2,0,1.7,0.1V294.4z M285.7,304.4H284v-11.2h1.6V304.4z M295.1,296.7l-4.3,11.1h-1.6l1.2-3.3l-3.3-7.8h1.8l2.2,5.6l2-5.6
		H295.1z M298.4,294.8h-1.9v-1.7h1.9V294.8z M298.3,304.4h-1.6v-7.7h1.6V304.4z M307.8,304.4h-1.6v-4.2c0-0.3,0-0.6,0-1
		c0-0.4-0.1-0.7-0.2-0.9c-0.1-0.2-0.5-0.4-0.9-0.4c-0.5,0-1,0.2-1.3,0.6c-0.3,0.4-0.6,0.8-0.7,1.3c-0.2,0.5-0.2,0.9-0.2,1.3v3.3
		h-1.6v-7.7h1.6v1.7c0.3-0.6,0.6-1,1.1-1.3c0.4-0.3,1-0.5,1.7-0.5c0.6,0,1,0.1,1.4,0.4c0.3,0.2,0.6,0.5,0.7,0.9
		c0.1,0.4,0.2,0.8,0.2,1.3L307.8,304.4L307.8,304.4z M316.8,304.7c0,1.1-0.4,2-1.1,2.5c-0.7,0.5-1.7,0.7-2.9,0.7
		c-0.9,0-1.8-0.1-2.6-0.3v-1.5c0.4,0.2,0.8,0.3,1.2,0.4c0.4,0.1,0.8,0.2,1.3,0.2c0.9,0,1.6-0.2,2-0.6c0.4-0.4,0.5-1,0.5-1.8v-1.2
		c-0.2,0.4-0.5,0.8-1,1c-0.4,0.2-0.9,0.3-1.4,0.3c-0.8,0-1.4-0.2-1.8-0.6c-0.4-0.4-0.7-0.9-0.9-1.5c-0.2-0.6-0.2-1.2-0.2-1.8
		c0-0.6,0.1-1.2,0.2-1.8c0.2-0.6,0.5-1.1,0.9-1.6c0.4-0.4,1.1-0.6,1.9-0.7c0.5,0,0.9,0.1,1.3,0.3c0.4,0.2,0.7,0.5,0.9,0.9l0-1.1h1.6
		L316.8,304.7L316.8,304.7z M315.2,300.4c0-0.4,0-0.8-0.1-1.2c-0.1-0.4-0.3-0.8-0.6-1.1c-0.3-0.3-0.7-0.5-1.1-0.5
		c-0.5,0-0.9,0.2-1.1,0.5c-0.2,0.3-0.4,0.7-0.5,1.2c-0.1,0.4-0.1,0.8-0.1,1.2c0,0.3,0,0.7,0.1,1.1c0.1,0.4,0.2,0.8,0.5,1.1
		c0.2,0.3,0.6,0.5,1.1,0.5c0.5,0,0.9-0.2,1.2-0.5c0.3-0.3,0.5-0.7,0.6-1.2C315.2,301.1,315.2,300.7,315.2,300.4z M330.4,294.4
		c-0.6-0.1-1.1-0.2-1.7-0.2c-0.6,0-1,0.2-1.3,0.5c-0.3,0.3-0.4,0.7-0.4,1.2v0.8h2.5v1.1H327v6.6h-1.6v-6.6h-1.5v-1.1h1.5v-0.9
		c0-1,0.3-1.7,0.9-2.1c0.6-0.4,1.4-0.7,2.4-0.7c0.6,0,1.2,0,1.7,0.1L330.4,294.4L330.4,294.4z M338.1,300.5c0,0.8-0.1,1.4-0.4,2.1
		c-0.2,0.6-0.7,1.1-1.2,1.4c-0.6,0.4-1.3,0.5-2.2,0.6c-0.9,0-1.6-0.2-2.2-0.5c-0.5-0.4-1-0.8-1.2-1.4c-0.2-0.6-0.4-1.3-0.4-2.1
		c0-0.8,0.1-1.5,0.4-2.1c0.2-0.6,0.7-1.1,1.2-1.4c0.6-0.4,1.3-0.5,2.2-0.5c0.9,0,1.7,0.2,2.2,0.5c0.6,0.4,1,0.8,1.2,1.4
		C337.9,299.1,338.1,299.8,338.1,300.5z M336.3,300.5c0-0.4,0-0.9-0.1-1.3c-0.1-0.4-0.3-0.8-0.6-1.1c-0.3-0.3-0.7-0.5-1.3-0.5
		c-0.6,0-1,0.2-1.3,0.5c-0.3,0.3-0.5,0.7-0.6,1.1c-0.1,0.4-0.1,0.9-0.1,1.3c0,0.4,0,0.9,0.1,1.3c0.1,0.4,0.3,0.8,0.6,1.1
		c0.3,0.3,0.7,0.5,1.3,0.5c0.6,0,1-0.2,1.3-0.5c0.3-0.3,0.5-0.7,0.6-1.1C336.2,301.4,336.3,301,336.3,300.5z M344.4,298.1
		c-0.7,0-1.2,0.1-1.6,0.4c-0.4,0.3-0.7,0.6-0.8,1.1c-0.2,0.5-0.2,1-0.2,1.5v3.3h-1.6v-7.7h1.6v1.6c0.2-0.5,0.6-1,1-1.3
		c0.4-0.3,1-0.5,1.6-0.5V298.1z M357.3,300h-5c0,0.6,0.1,1.1,0.3,1.7c0.2,0.5,0.6,1,1,1.3c0.5,0.3,1.1,0.5,1.8,0.5
		c0.6,0,1.1-0.1,1.6-0.3v1.2c-0.7,0.2-1.4,0.2-2.1,0.3c-1,0-1.8-0.2-2.4-0.6c-0.6-0.4-1.1-0.9-1.4-1.6c-0.3-0.7-0.4-1.4-0.4-2.3
		c0-0.7,0.1-1.3,0.4-1.9c0.2-0.6,0.6-1,1.1-1.3c0.5-0.3,1.2-0.5,2-0.5c1,0,1.8,0.3,2.3,0.9c0.5,0.6,0.8,1.3,0.8,2.2L357.3,300
		L357.3,300z M355.7,299c0-0.4-0.2-0.8-0.4-1c-0.3-0.2-0.7-0.4-1.1-0.4c-0.3,0-0.7,0.1-0.9,0.2c-0.3,0.2-0.5,0.4-0.6,0.7
		c-0.1,0.1-0.1,0.3-0.1,0.5H355.7z M365.9,296.7l-3,7.7h-1.7l-3.2-7.7h1.8l2.2,5.6l2-5.6H365.9z M373.3,300h-5
		c0,0.6,0.1,1.1,0.3,1.7c0.2,0.5,0.6,1,1,1.3c0.5,0.3,1.1,0.5,1.8,0.5c0.6,0,1.1-0.1,1.6-0.3v1.2c-0.7,0.2-1.4,0.2-2.1,0.3
		c-1,0-1.8-0.2-2.4-0.6c-0.6-0.4-1.1-0.9-1.4-1.6c-0.3-0.7-0.4-1.4-0.4-2.3c0-0.7,0.1-1.3,0.4-1.9c0.2-0.6,0.6-1,1.1-1.3
		c0.5-0.3,1.2-0.5,2-0.5c1.1,0,1.8,0.3,2.3,0.9c0.5,0.6,0.8,1.3,0.8,2.2V300z M371.7,299c0-0.4-0.2-0.8-0.4-1
		c-0.3-0.2-0.7-0.4-1.1-0.4c-0.4,0-0.7,0.1-0.9,0.2c-0.3,0.2-0.5,0.4-0.6,0.7c-0.1,0.1-0.1,0.3-0.1,0.5H371.7z M379.6,298.1
		c-0.7,0-1.2,0.1-1.6,0.4c-0.4,0.3-0.7,0.6-0.8,1.1c-0.2,0.5-0.2,1-0.2,1.5v3.3h-1.6v-7.7h1.6v1.6c0.2-0.5,0.6-1,1-1.3
		c0.5-0.3,1-0.5,1.6-0.5V298.1z M387.9,296.7l-4.3,11.1H382l1.2-3.3l-3.2-7.8h1.8l2.3,5.6l2-5.6H387.9z M396.2,300.5
		c0,0.8-0.1,1.4-0.4,2.1c-0.2,0.6-0.7,1.1-1.2,1.4c-0.5,0.4-1.3,0.5-2.2,0.6c-0.9,0-1.7-0.2-2.2-0.5c-0.6-0.4-1-0.8-1.2-1.4
		c-0.2-0.6-0.4-1.3-0.4-2.1c0-0.8,0.1-1.5,0.4-2.1c0.2-0.6,0.7-1.1,1.2-1.4c0.5-0.4,1.3-0.5,2.2-0.5c0.9,0,1.6,0.2,2.2,0.5
		c0.6,0.4,1,0.8,1.2,1.4C396.1,299.1,396.2,299.8,396.2,300.5z M394.4,300.5c0-0.4,0-0.9-0.1-1.3c-0.1-0.4-0.3-0.8-0.6-1.1
		c-0.3-0.3-0.7-0.5-1.3-0.5c-0.6,0-1,0.2-1.3,0.5c-0.3,0.3-0.5,0.7-0.6,1.1c-0.1,0.4-0.1,0.9-0.1,1.3c0,0.4,0,0.9,0.1,1.3
		c0.1,0.4,0.3,0.8,0.6,1.1c0.3,0.3,0.7,0.5,1.3,0.5c0.6,0,1-0.2,1.3-0.5c0.3-0.3,0.5-0.7,0.6-1.1C394.4,301.4,394.4,301,394.4,300.5
		z M404.9,304.4h-1.6v-4.2c0-0.3,0-0.6,0-1c0-0.4-0.1-0.7-0.2-0.9c-0.2-0.2-0.5-0.4-0.9-0.4c-0.5,0-1,0.2-1.3,0.6
		c-0.3,0.4-0.6,0.8-0.7,1.3c-0.2,0.5-0.2,0.9-0.2,1.3v3.3h-1.6v-7.7h1.6v1.7c0.3-0.6,0.6-1,1.1-1.3c0.4-0.3,1-0.5,1.7-0.5
		c0.6,0,1,0.1,1.4,0.4c0.3,0.2,0.6,0.5,0.7,0.9c0.2,0.4,0.2,0.8,0.2,1.3V304.4L404.9,304.4z"/>
	<path id="XMLID_99_" class="st1" d="M224.7,240.8l-8,2.5c-0.2-1.6-0.7-2.8-1.5-3.5c-0.8-0.8-1.9-1.2-3.3-1.2c-1,0-2,0.3-2.8,0.9
		c-0.8,0.6-1.4,1.3-1.7,2.2c-0.3,1,0.1,2,1,2.7c0.9,0.8,2.2,1.5,3.7,2.2c1.5,0.7,3,1.5,4.4,2.4c1.5,0.9,2.6,2,3.3,3.4
		c0.8,1.4,0.9,3,0.4,5.1c-1,3.4-3,6.1-5.8,7.8c-2.8,1.8-6.1,2.7-9.9,2.7c-1.8,0-3.4-0.2-5-0.6c-1.5-0.5-2.9-1.4-4-2.8
		c-1.1-1.4-2-3.6-2.6-6.4l8.5-2c-0.1,1.6,0.3,2.9,1.1,3.9c0.8,1,2.1,1.4,3.8,1.5c1.3,0,2.5-0.3,3.4-0.8c0.9-0.5,1.5-1.3,1.8-2.2
		c0.3-1.3,0-2.4-0.9-3.2c-0.9-0.8-2.1-1.5-3.7-2.2c-1.5-0.7-3-1.4-4.5-2.3c-1.5-0.9-2.6-2-3.3-3.4c-0.8-1.4-0.8-3.3-0.2-5.6
		c0.7-2.2,1.7-4,3.3-5.4c1.5-1.4,3.3-2.5,5.3-3.2c2-0.7,4.1-1.1,6.2-1.1c3.3,0,5.9,0.8,7.7,2.4C223.3,236.1,224.3,238.2,224.7,240.8
		 M239.7,240.9l-5.4,19c1.2,1.7,2.7,2.5,4.6,2.5c1.2,0.1,2.4-0.4,3.5-1.6c1.1-1.1,2.2-3.4,3.2-6.7l2.1-7.4c0.9-3.4,1.1-5.6,0.6-6.7
		c-0.5-1.1-1.4-1.6-2.6-1.6C243.8,238.4,241.8,239.3,239.7,240.9z M233,233.1h8.2l-1.2,4.2c1.3-1.1,2.9-2.2,4.9-3.2
		c2-1,4-1.5,6.1-1.6c3.4,0,5.6,1.2,6.4,3.5c0.9,2.3,0.7,5.7-0.6,10.2l-2.4,8.4c-1.2,4.5-3,7.9-5.2,10.2c-2.2,2.3-5,3.5-8.4,3.5
		c-1.2,0-2.3-0.3-3.5-0.9c-1.2-0.6-2.6-1.6-4.3-3l-5.5,19.3h-8.9L233,233.1z M310,245h-8.8l0.4-1.5c0.4-1.3,0.2-2.4-0.6-3
		c-0.7-0.7-1.9-1-3.5-1c-1.6,0-2.9,0.3-4,1c-1.1,0.7-1.9,1.7-2.3,3l-3.9,13.8c-0.4,1.3-0.2,2.4,0.6,3c0.7,0.7,1.9,1,3.5,1
		c1.6,0,2.9-0.3,4.1-1c1.1-0.7,1.9-1.7,2.3-3l0.6-2.2h8.9c-1.4,4.7-3.5,8-6.6,10.1c-3,2.1-6.8,3.1-11.2,3.1c-4.5,0-7.6-1-9.5-3.1
		c-1.9-2.1-2.1-5.4-0.9-10l2.7-9.7c1.3-4.6,3.5-7.9,6.6-10c3-2.1,6.8-3.1,11.2-3.1c4.4,0,7.5,1,9.3,3
		C310.7,237.5,311.1,240.7,310,245z M341.6,252.3h-19.3l-1.3,4.6c-0.4,1.7-0.3,3,0.4,3.8c0.7,0.8,1.9,1.2,3.4,1.2
		c1.8,0,3.3-0.5,4.4-1.4c1.1-0.9,1.8-2.1,2.2-3.4h8.8c-1.2,3.6-3.3,6.4-6.2,8.3c-2.9,2-6.6,3-11.1,3c-4.3,0-7.4-1.1-9.3-3.3
		c-1.9-2.2-2.4-5.2-1.3-9l3.2-11.3c1.1-3.8,3.3-6.8,6.4-9c3.1-2.2,6.9-3.3,11.1-3.3c4.2,0.1,7.2,1.1,9.2,3.2c2,2.1,2.5,5,1.5,8.5
		L341.6,252.3z M324.1,245.8h10.4l0.5-1.9c0.4-1.5,0.4-2.8-0.2-3.6c-0.6-0.9-1.8-1.3-3.6-1.3c-1.8,0-3.2,0.5-4.3,1.3
		c-1.1,0.9-1.9,2.1-2.3,3.6L324.1,245.8z M394.5,252.3h-19.3l-1.3,4.6c-0.5,1.7-0.3,3,0.4,3.8c0.7,0.8,1.9,1.2,3.4,1.2
		c1.9,0,3.3-0.5,4.4-1.4c1.1-0.9,1.8-2.1,2.2-3.4h8.9c-1.2,3.6-3.3,6.4-6.2,8.3c-2.9,2-6.6,3-11.1,3c-4.3,0-7.3-1.1-9.3-3.3
		c-1.9-2.2-2.3-5.2-1.3-9l3.2-11.3c1.1-3.8,3.3-6.8,6.4-9c3.1-2.2,6.9-3.3,11.1-3.3c4.2,0.1,7.2,1.1,9.2,3.2c2,2.1,2.5,5,1.5,8.5
		L394.5,252.3z M377.1,245.8h10.4l0.5-1.9c0.4-1.5,0.4-2.8-0.2-3.6c-0.6-0.9-1.8-1.3-3.6-1.3c-1.8,0-3.2,0.5-4.3,1.3
		c-1.1,0.9-1.9,2.1-2.3,3.6L377.1,245.8z M404.6,241.1H400l1.8-6.5h4.6l3.4-12h8.9l-3.4,12h5.7l-1.8,6.5h-5.7l-5,17.7
		c-0.2,0.9-0.1,1.5,0.6,1.9c0.6,0.4,1.5,0.6,2.7,0.6c0.6,0,1.2,0,1.8-0.1l-1.9,6.7c-1.8,0.2-3.5,0.3-5.2,0.3c-2.9,0-5.1-0.5-6.5-1.6
		c-1.4-1.1-1.8-2.8-1.1-5.3L404.6,241.1z M349,257.1l6.3-22.2l3.5-12.3h8.9l-3.5,12.3l-10.7,36.9c-1.3,4.5-3.5,7.8-6.5,9.9
		c-3,2.1-6.8,3.1-11.2,3.1c-4.5,0-7.6-1-9.5-3.1c-1.8-2.1-2.1-5.4-0.9-10l8.9,0l-0.7,2.1c-0.3,1.3-0.2,2.4,0.6,3
		c0.7,0.7,1.9,1,3.5,1c1.6,0,2.9-0.3,4.1-1c1.1-0.7,1.9-1.7,2.3-3l0.8-2.8L349,257.1z M268,233.1h8.9l-9.8,34.6h-8.9L268,233.1z
		 M277.8,229.9H269l2-7.3h8.9L277.8,229.9z"/>
	<g id="XMLID_121_">
		<defs>
			<path id="XMLID_120_" d="M167.9,251.7c0.4-2,2.6-4.2,4.9-5c2.3-0.7,3.8,0.3,3.3,2.3c-0.4,2-2.6,4.2-4.9,4.9
				C169,254.7,167.5,253.7,167.9,251.7 M112.6,201.6c2.7-7.3,11.1-12.8,18.6-12.3c7.2,0.5,10.6,6.5,7.8,13.2
				c-2.7,6.7-10.4,12-17.6,11.9C114,214.4,109.9,208.7,112.6,201.6 M134.5,213.8c2.1-5.3,8.2-9.4,13.5-9.3c5.1,0.2,7.4,4.4,5.3,9.4
				c-2.1,4.9-7.9,9-13,9.1C135.1,223.1,132.4,219,134.5,213.8 M153,224.4c1.7-3.9,6.1-7,9.9-7c3.7,0,5.3,3,3.6,6.7
				c-1.7,3.7-5.9,6.8-9.6,6.9C153.1,231.1,151.3,228.2,153,224.4 M165.9,231.8c1.3-2.9,4.7-5.3,7.4-5.4c2.7-0.1,3.8,2.1,2.5,5
				c-1.3,2.8-4.5,5.2-7.3,5.3C165.9,236.8,164.6,234.6,165.9,231.8 M175.4,237.2c1-2.2,3.6-4.1,5.7-4.2c2.1-0.1,2.9,1.6,1.8,3.7
				c-1,2.1-3.5,4-5.6,4.1C175.2,241,174.3,239.3,175.4,237.2 M74,284.6c-2.3-4.5,2.3-11.6,10.2-15.6c7.7-3.9,15.4-3.1,17.2,1.5
				c1.7,4.5-2.7,11-9.9,14.9C84.1,289.3,76.3,289,74,284.6 M104.5,278c-1.4-3.5,2.2-8.8,7.9-11.7c5.6-2.9,11-2.3,12,1.2
				c1.1,3.4-2.4,8.5-7.7,11.3C111.3,281.7,105.8,281.4,104.5,278 M131,272.3c-0.8-2.7,2-6.7,6.1-8.9c4.1-2.2,7.9-1.7,8.5,1
				c0.6,2.6-2,6.5-6,8.6C135.6,275.3,131.7,275,131,272.3 M150.1,268.3c-0.5-2.1,1.7-5.1,4.7-6.8c3.1-1.7,5.8-1.3,6.2,0.8
				c0.4,2-1.7,5-4.7,6.7C153.4,270.6,150.6,270.3,150.1,268.3 M164.3,265.3c-0.3-1.6,1.4-4,3.7-5.3c2.3-1.3,4.4-1,4.6,0.6
				c0.2,1.6-1.4,3.9-3.7,5.2C166.7,267.1,164.6,266.9,164.3,265.3 M86.3,244c0.2-6.4,7.2-13.3,15.5-15.3c8-1.9,13.9,1.6,13.4,7.7
				c-0.5,6-7,12.4-14.7,14.6C92.6,253.2,86.2,250.2,86.3,244 M114.5,246.5c0.4-4.7,5.6-9.8,11.4-11.4c5.7-1.5,9.8,1,9.2,5.6
				c-0.6,4.5-5.4,9.3-11,11C118.5,253.4,114.1,251.1,114.5,246.5 M138.5,248.8c0.5-3.5,4.3-7.3,8.5-8.5c4.1-1.2,6.9,0.7,6.4,4.1
				c-0.6,3.3-4.2,7-8.3,8.3C141,254,138,252.3,138.5,248.8 M155.5,250.5c0.5-2.6,3.4-5.5,6.4-6.5c3.1-0.9,5.1,0.4,4.6,3
				c-0.5,2.6-3.3,5.4-6.3,6.3C157.1,254.4,155,253.1,155.5,250.5"/>
		</defs>
		<clipPath id="XMLID_17_">
			<use xlink:href="#XMLID_120_"  style="overflow:visible;"/>
		</clipPath>
		
			<linearGradient id="XMLID_18_" gradientUnits="userSpaceOnUse" x1="-0.6639" y1="0.2134" x2="0.2184" y2="0.2134" gradientTransform="matrix(-91.844 -37.107 37.107 -91.844 105.5688 252.8234)">
			<stop  offset="0" style="stop-color:#FFDD00"/>
			<stop  offset="1" style="stop-color:#F58220"/>
		</linearGradient>
		<polygon id="XMLID_122_" class="st2" points="218.8,202.9 87.5,149.8 36.8,275.2 168.2,328.3 		"/>
	</g>
</g>
</svg>
